{"title":"The Babadook (2014)","uid":11569922,"size":3656489354,"categoryP":"video","categoryS":"hd___movies","magnet":"?xt=urn:btih:e2f9e0a380d005f5828315a00654738dda2e5b6d&amp;dn=The+Babadook+%282014%29&amp;tr=udp%3A%2F%2Ftracker.openbittorrent.com%3A80&amp;tr=udp%3A%2F%2Fopen.demonii.com%3A1337&amp;tr=udp%3A%2F%2Ftracker.coppersurfer.tk%3A6969&amp;tr=udp%3A%2F%2Fexodus.desync.com%3A6969","seeders":3,"leechers":1,"uploader":"cavallone","files":1,"time":1416960513,"description":"Plot: A single mother, plagued by the violent death of her husband, battles with her son's fear of a monster lurking in the house, but soon discovers a sinister presence all around her.\n\n\nRip specs;\n\nGeneral\nUnique ID : 186894928912651915800914560305171854315 (0x8C9AA76CDA1DF967987C205D3CD0F3EB)\nComplete name : Babadook.mkv\nFormat : Matroska\nFormat version : Version 4 / Version 2\nFile size : 3.41 GiB\nDuration : 1h 29mn\nOverall bit rate : 5 424 Kbps\nEncoded date : UTC 2014-11-22 05:47:48\nWriting application : mkvmerge v7.3.0 ('Nouages') 64bit built on Oct 22 2014 18:53:34\nWriting library : libebml v1.3.0 + libmatroska v1.4.1\n_STATISTICS_WRITING_APP : mkvmerge v7.3.0 ('Nouages') 64bit built on Oct 22 2014 18:53:34\n_STATISTICS_WRITING_DATE_UTC : 2014-11-22 05:47:48\n_STATISTICS_TAGS : BPS DURATION NUMBER_OF_FRAMES NUMBER_OF_BYTES\nDURATION : 01:29:53.056000000\nNUMBER_OF_FRAMES : 168533\nNUMBER_OF_BYTES : 388300032\n\nVideo\nID : 1\nFormat : AVC\nFormat/Info : Advanced Video Codec\nFormat profile : &lt;a class=&quot;__cf_email__&quot; href=&quot;/cdn-cgi/l/email-protection&quot; data-cfemail=&quot;9bd3f2fcf3dbd7afb5aa&quot;&gt;[email&amp;#160;protected]&lt;/a&gt;&lt;script cf-hash='f9e31' type=&quot;text/javascript&quot;&gt;\n/* &lt;![CDATA[ */!function(){try{var t=&quot;currentScript&quot;in document?document.currentScript:function(){for(var t=document.getElementsByTagName(&quot;script&quot;),e=t.length;e--;)if(t[e].getAttribute(&quot;cf-hash&quot;))return t[e]}();if(t&amp;&amp;t.previousSibling){var e,r,n,i,c=t.previousSibling,a=c.getAttribute(&quot;data-cfemail&quot;);if(a){for(e=&quot;&quot;,r=parseInt(a.substr(0,2),16),n=2;a.length-n;n+=2)i=parseInt(a.substr(n,2),16)^r,e+=String.fromCharCode(i);e=document.createTextNode(e),c.parentNode.replaceChild(e,c)}}}catch(u){}}();/* ]]&gt; */&lt;/script&gt;\nFormat settings, CABAC : Yes\nFormat settings, ReFrames : 12 frames\nCodec ID : V_MPEG4/ISO/AVC\nDuration : 1h 29mn\nBit rate : 4 850 Kbps\nWidth : 1 280 pixels\nHeight : 532 pixels\nDisplay aspect ratio : 2.40:1\nFrame rate mode : Constant\nFrame rate : 25.000 fps\nColor space : YUV\nChroma subsampling : 4:2:0\nBit depth : 8 bits\nScan type : Progressive\nBits/(Pixel*Frame) : 0.285\nStream size : 2.98 GiB (87%)\nWriting library : x264 core 142 r2479 dd79a61\nEncoding settings : cabac=1 / ref=12 / deblock=1:-2:-2 / analyse=0x3:0x133 / me=umh / subme=10 / psy=1 / psy_rd=1.00:0.00 / mixed_ref=1 / me_range=32 / chroma_me=1 / trellis=2 / 8x8dct=1 / cqm=0 / deadzone=21,11 / fast_pskip=0 / chroma_qp_offset=-2 / threads=12 / lookahead_threads=1 / sliced_threads=0 / nr=0 / decimate=0 / interlaced=0 / bluray_compat=0 / constrained_intra=0 / bframes=5 / b_pyramid=2 / b_adapt=2 / b_bias=0 / direct=3 / weightb=1 / open_gop=0 / weightp=2 / keyint=250 / keyint_min=25 / scenecut=40 / intra_refresh=0 / rc_lookahead=100 / rc=2pass / mbtree=1 / bitrate=4850 / ratetol=1.0 / qcomp=0.60 / qpmin=0 / qpmax=69 / qpstep=4 / cplxblur=20.0 / qblur=0.5 / vbv_maxrate=62500 / vbv_bufsize=78125 / nal_hrd=none / filler=0 / ip_ratio=1.40 / aq=1:1.00\nDefault : Yes\nForced : No\nColor primaries : BT.709\nTransfer characteristics : BT.709\nMatrix coefficients : BT.709\n\nAudio\nID : 2\nFormat : AC-3\nFormat/Info : Audio Coding 3\nMode extension : CM (complete main)\nFormat settings, Endianness : Big\nCodec ID : A_AC3\nDuration : 1h 29mn\nBit rate mode : Constant\nBit rate : 576 Kbps\nChannel count : 6 channels\nChannel positions : Front: L C R, Side: L R, LFE\nSampling rate : 48.0 KHz\nBit depth : 16 bits\nCompression mode : Lossy\nStream size : 370 MiB (11%)\nDefault : Yes\nForced : No","torrent":{"xt":"urn:btih:e2f9e0a380d005f5828315a00654738dda2e5b6d","amp;dn":"The+Babadook+%282014%29","amp;tr":["udp%3A%2F%2Ftracker.openbittorrent.com%3A80","udp%3A%2F%2Fopen.demonii.com%3A1337","udp%3A%2F%2Ftracker.coppersurfer.tk%3A6969","udp%3A%2F%2Fexodus.desync.com%3A6969"],"infoHash":"e2f9e0a380d005f5828315a00654738dda2e5b6d","infoHashBuffer":{"type":"Buffer","data":[226,249,224,163,128,208,5,245,130,131,21,160,6,84,115,141,218,46,91,109]},"announce":[],"urlList":[]}}